<svg id="LOGO" xmlns="http://www.w3.org/2000/svg" viewBox="0 0 9000 9000"><defs><style>.cls-1{fill:#1a609c;}.cls-2{fill:#fff;}.cls-3{fill:#31ba9b;}.cls-4,.cls-6{fill:#1b3f6f;}.cls-5{fill:#0f589b;}.cls-6{font-size:707.94px;font-family:SVN-Avo;}</style></defs><g id="LOGO-2" data-name="LOGO"><g id="OFFICE_SAIGON_TIM_LA_THAY_GOI_LA_CO" data-name="OFFICE SAIGON TIM LA THAY GOI LA CO"><rect class="cls-1" x="5003.57" y="7410.22" width="3747.08" height="1169.26"/><g id="GOI_LA_CO" data-name="GOI LA CO"><path id="O" class="cls-2" d="M8430.37,8061.28q0,131.36-62,216.55T8206.31,8363q-100.75,0-163.32-85.21t-62.57-216.55V7933.35q0-130.85,62.39-216.31t162.77-85.45q99.66,0,162.23,85.45t62.56,216.31Zm-122.58-128.9q0-76.19-26.73-125t-75.48-48.83q-49.83,0-76.2,48.58T8103,7932.38v128.9q0,77.16,26.73,126t76.57,48.83q48.38,0,74.93-48.83t26.55-126Zm-91.66-481.45h126.58l.73,2.93-101.85,127H8141.2Z"/><path id="C" class="cls-2" d="M7939.64,8103.27l.72,2.93q-3.63,125-55.1,190.92T7735.94,8363q-98.2,0-159.68-81.06t-61.47-210.44V7923.1q0-128.91,59.1-210.21t153.69-81.3q100.38,0,153.49,67.87t60,192.88l-.73,2.93H7820.69q-2.55-69.33-23.09-103t-70-33.69q-41.84,0-65.84,45.16t-24,118.41v149.42q0,73.72,26.19,119.14t72,45.41q44.37,0,62.93-31.74t21.1-101.08Z"/><path id="A" class="cls-2" d="M7177.14,8214.6h-167l-29.83,138.19H6856.68l171-710.94h132L7331,8352.79H7207.33ZM7155,7591.07h-100l-102.58-127,.73-2.93h126.22Zm-117.49,496.58h112.4l-55.29-254.4h-2.19Z"/><path id="L" class="cls-2" d="M6622,8225.83h228.06v127H6498.71V7641.85H6622Z"/><path id="I" class="cls-2" d="M6248.72,8352.79H6126.14V7641.85h122.58Z"/><path id="O-2" data-name="O" class="cls-2" d="M6059.89,8061.28q0,131.36-62,216.55T5835.82,8363q-100.76,0-163.32-85.21t-62.56-216.55V7933.35q0-130.85,62.38-216.31t162.78-85.45q99.66,0,162.23,85.45t62.56,216.31Zm-122.58-128.9q0-76.19-26.74-125t-75.47-48.83q-49.85,0-76.21,48.58t-26.37,125.25v128.9q0,77.16,26.74,126t76.56,48.83q48.38,0,74.93-48.83t26.56-126Zm-32.74,601.07H5766v-127h138.58Z"/><path id="G" class="cls-2" d="M5560.42,8254.64q-26.92,43-78.2,75.68T5353.45,8363q-98.21,0-159.5-81.06t-61.29-210.44V7923.1q0-128.42,59.84-210t154-81.55q102.21,0,153.14,63.48t57.83,173.34l-.72,2.93H5441.48q-6.19-56.15-27.1-84.47t-63.84-28.32q-42.91,0-69.11,45.65t-26.19,117.92v149.42q0,74.22,25.83,119.38t72.38,45.17q33.84,0,53.11-7.33t30.55-19.53v-112.3h-83.29V7987.55h206.6Z"/></g><g id="TIM_LA_THAY" data-name="TIM LA THAY"><path id="Y" class="cls-3" d="M4310.81,7994H4313l105.48-310.55H4552l-180.05,460.94v250H4249.34v-258.3l-176.41-452.64h132.76Z"/><path id="A-2" data-name="A" class="cls-3" d="M3987.66,8256.24h-167l-29.83,138.19H3667.2l171-710.94h132l171.32,710.94H4017.85Zm-136-755.37h101.84l109.13,122.07-.73,2.93H3955.28l-53.1-66.89-52.38,66.89H3742.86l-.73-2.93ZM3848,8129.29h112.4l-55.29-254.39h-2.19Zm233.88-720.21h108.4L4111,7543.35h-84.38Z"/><path id="H" class="cls-3" d="M3625.22,8394.43H3502.64V8108.29H3306.58v286.14H3183.27V7683.49h123.31v297.85h196.06V7683.49h122.58Z"/><path id="T" class="cls-3" d="M3142.38,7810.44H3002.7v584H2879.39v-584H2740.81V7683.49h401.57Z"/><path id="A-3" data-name="A" class="cls-3" d="M2413.86,8256.24h-167l-29.83,138.19H2093.4l171-710.94h132l171.32,710.94H2444.05Zm-22.19-623.53h-100l-102.57-127,.72-2.92H2316Zm-117.49,496.58h112.4l-55.29-254.39h-2.18Z"/><path id="L-2" data-name="L" class="cls-3" d="M1854.27,8267.47h228.07v127H1731V7683.49h123.31Z"/><path id="M" class="cls-3" d="M1077.37,7683.49,1196,8181.05h2.19l120-497.56H1480.4v710.94H1357.09V8218.16l11.64-324.71-2.18-.49-127.67,501.47h-82.94l-126.22-497.07-2.18.48,11.64,320.32v176.27H915.87V7683.49Z"/><path id="I-2" data-name="I" class="cls-3" d="M838.24,7632.71h-100l-102.57-127,.73-2.92H762.58Zm-4.73,761.72H710.93V7683.49H833.51Z"/><path id="T-2" data-name="T" class="cls-3" d="M661.67,7810.44H522v584H398.69v-584H260.1V7683.49H661.67Z"/></g><g id="OFFICE_SAIGON" data-name="OFFICE SAIGON"><path id="N" class="cls-1" d="M8717,6275.57c-11.9,23.27-15.87,39.45-15.87,65.75l-1,680.67c-48.57-10.11-78.3-19.22-121.91-43.49-75.32-40.46-110-73.83-133.79-106.2l-260.66-357v357c0,33.38,4.95,55.63,22.8,83.95,8.91,15.17,16.85,23.26,29.73,35.4h-226c12.89-12.14,19.82-20.23,28.74-35.4,14.87-25.28,22.79-51.58,22.79-84.95V6384.81c0-36.41-2-59.68-16.84-92-13.87-28.32-41.63-61.69-48.56-66.76H8233.3l347.86,475.36V6340.3c0-25.28-5.94-40.45-15.85-62.7-10.9-20.23-17.83-36.41-33.7-51.59h219C8735.78,6241.19,8726.86,6256.36,8717,6275.57Z"/><path id="O-3" data-name="O" class="cls-1" d="M7479.13,7012.89c-244.79,0-400.39-183.06-400.39-394.45,0-225.55,173.43-401.52,424.18-401.52,239.84,0,417.25,151.71,417.25,381.29C7920.17,6859.16,7736.82,7012.89,7479.13,7012.89Zm7.93-681.68c-126.86,0-190.29,115.29-190.29,251.83,0,154.75,77.31,314.55,206.15,314.55,140.74,0,194.25-119.35,194.25-246.78C7697.17,6495.06,7636.72,6331.21,7487.06,6331.21Z"/><path id="G-2" data-name="G" class="cls-1" d="M6761.64,7006.82c-219,4.05-422.21-141.6-423.2-396.47-2-228.58,201.19-405.57,420.22-393.43,66.41,4,127.85,7.08,175.42,23.26l1,158.79-42.63-26.3c-19.82-13.15-91.17-41.46-140.72-36.41-170.47,14.16-198.23,152.72-199.22,252.85,0,158.79,70.37,298.36,192.28,298.36h50.54c4,0,5-1,7.93-2,3,0,5,0,7.93-2V6684.19c0-20.24-5-32.38-13.88-48.55-9.91-17.2-17.84-26.3-33.7-37.43h242.82v374.22C6980.66,6982.54,6856.78,7004.8,6761.64,7006.82Z"/><path id="I-3" data-name="I" class="cls-1" d="M5930.15,6991.65c9.91-5.06,15.85-9.11,23.79-17.2,22.79-22.25,28.73-47.53,28.73-79.89V6313c0-3-3.95-35.39-14.86-50.56-11.9-16.18-19.82-26.29-38.66-36.42H6247.3c-16.85,10.13-23.79,22.25-35.68,37.42-10.9,15.18-15.86,46.53-15.86,49.56v556.28c0,33.37-3,59.67,14.87,87,9.91,16.18,19.82,25.29,36.67,35.4Z"/><path id="A-4" data-name="A" class="cls-1" d="M5462.41,6991.65c16.84-5.06,37.66-17.2,49.56-41.47s9.91-44.5,1-69.79L5473.31,6758h-225l-40.63,121.37c-7.93,25.29-10.91,47.54-1,70.8,10.91,25.28,34.7,36.41,51.55,41.47H5006.5c11.9-10.11,17.85-19.22,27.76-31.36,14.87-18.2,26.76-30.34,35.67-53.6l197.23-582.56c3-10.12,5-16.19,4-26.31,0-34.39-23.79-62.7-51.54-71.81H5506l233.9,659.44c8.92,24.28,18.83,37.42,33.7,57.66s25.76,31.34,44.6,48.54Zm-104.06-567.4-79.29,222.51h158.57Z"/><path id="S" class="cls-1" d="M4635.89,7008.84c-60.45,0-126.86-11.13-194.25-36.41l-27.76-10.11-33.69-159.8,81.27,47.53c44.6,26.3,110,42.48,165.51,39.45,60.46-3,109-27.31,108-81.93,0-49.56-36.67-77.87-80.28-99.12L4575.44,6669c-131.82-65.74-188.32-126.42-184.35-243.74,4-129.46,125.87-204.31,271.56-209.37,41.62-1,84.24,4.05,127.85,14.16l71.36,18.2V6383.8l-44.6-25.29c-21.8-12.13-65.41-27.3-107-29.33-44.59-2-86.22,10.12-103.07,51.59-23.79,61.68,37.66,88,116,126.41l75.33,35.41c76.31,35.4,144.69,115.3,146.68,212.39C4949.08,6910.73,4813.29,7007.84,4635.89,7008.84Z"/><path id="E" class="cls-1" d="M3965,6991.65H3455.59c11.89-6.06,18.83-9.11,27.74-19.22,21.81-24.27,26.76-48.54,26.76-79.9V6313c0-3-5-34.38-14.86-49.56-11.9-15.17-20.81-27.29-36.67-37.42h425.17c5.95,0,10.91,1,16.85-1,5-1,7.93-2,11.9-5.06v178c-6.94-16.19-13.88-24.28-27.75-34.39-16.85-12.14-43.61-18.21-50.55-18.21h-113v187.12h109c10.91,0,18.84,1,29.74-2l14.87-6.07v174c-6-17.19-13.88-27.31-28.74-37.42-16.85-12.14-43.61-14.16-50.55-14.16H3720.2v219.48c32.71,13.14,98.13,23.26,147.68,18.2,90.19-11.13,98.12-27.31,144.7-69.78Z"/><path id="C-2" data-name="C" class="cls-1" d="M3329.76,6985.59l-116,20.22c-296.34,49.56-531.22-115.3-529.24-395.46,2-236.67,181.37-404.56,467.8-382.31l128.83,10.11,5,160.82c-27.75-25.29-102.08-61.7-179.39-59.67-187.31,5.05-198.21,162.83-199.21,275.09-1,141.6,67.4,279.16,235.88,277.13,64.42-1,103.07-10.11,161.55-36.41l80.28-34.39Z"/><path id="I-4" data-name="I" class="cls-1" d="M2277.27,6991.65c9.91-5.06,15.86-9.11,23.79-17.2,22.79-22.25,28.74-47.53,28.74-79.89V6313c0-3-4-35.39-14.87-50.56-11.89-16.18-19.82-26.29-38.65-36.42h318.14c-16.85,10.13-23.79,22.25-35.68,37.42-10.9,15.18-15.85,46.53-15.85,49.56v556.28c0,33.37-3,59.67,14.86,87,9.91,16.18,19.82,25.29,36.67,35.4Z"/><path id="F" class="cls-1" d="M2128.65,6364.58c-16.85-12.14-42.61-19.22-49.55-19.22h-114v187.12h107c4,0,7.92-2,11.89-4,4-1,7.93-3,11.9-5.06v179c-3-15.17-8.93-22.25-18.84-33.38-14.86-17.2-33.7-22.25-50.54-22.25h-61.45v227.57c0,33.37,6,54.61,23.79,81.92,9.91,16.18,16.85,24.28,31.71,35.4l-317.14,1a117.69,117.69,0,0,0,22.79-16.18c22.8-22.25,27.75-46.53,27.75-78.89V6318.05c0-4-4-43.48-14.87-57.65-10.9-15.17-19.82-24.26-36.67-34.39h425.18c6.94,0,10.9,1,17.84-1a47.5,47.5,0,0,0,10.91-5.06v179C2148.47,6384.81,2141.53,6374.69,2128.65,6364.58Z"/><path id="F-2" data-name="F" class="cls-1" d="M1596.48,6364.58c-16.85-12.14-42.62-19.22-49.56-19.22H1433v187.12h107c4,0,7.92-2,11.89-4,4-1,7.93-3,11.89-5.06v179c-3-15.17-8.92-22.25-18.83-33.38-14.86-17.2-33.7-22.25-50.55-22.25H1433v227.57c0,33.37,6,54.61,23.79,81.92,9.91,16.18,16.84,24.28,31.71,35.4l-317.15,1a117.08,117.08,0,0,0,22.79-16.18c22.81-22.25,27.76-46.53,27.76-78.89V6318.05c0-4-4-43.48-14.87-57.65-10.9-15.17-19.82-24.26-36.67-34.39h425.18c6.94,0,10.9,1,17.84-1a47.28,47.28,0,0,0,10.9-5.06v179C1616.3,6384.81,1609.36,6374.69,1596.48,6364.58Z"/><path id="O-4" data-name="O" class="cls-1" d="M651,7012.89c-244.79,0-400.39-183.06-400.39-394.45,0-225.55,173.43-401.52,424.18-401.52,239.84,0,417.25,151.71,417.25,381.29C1092.08,6859.16,908.73,7012.89,651,7012.89ZM659,6331.21c-126.86,0-190.29,115.29-190.29,251.83,0,154.75,77.31,314.55,206.15,314.55,140.74,0,194.25-119.35,194.25-246.78C869.08,6495.06,808.63,6331.21,659,6331.21Z"/></g><polygon class="cls-1" points="4498.21 5779.02 4095.93 5572.63 6752.07 4206.18 7567.09 4206.18 4498.21 5779.02"/><polygon class="cls-1" points="1836.48 3997.98 1434.2 4204.37 4090.34 5570.82 4905.36 5570.82 1836.48 3997.98"/><polygon class="cls-4" points="5382.66 966.98 5382.66 1634.46 4500.65 1634.46 4500.65 521.99 5382.66 966.98"/><polygon class="cls-4" points="5382.66 4628.03 4500.65 5073.02 4500.65 1634.46 5382.66 1634.46 5382.66 4628.03"/><polygon class="cls-3" points="4857.41 1799.35 4857.41 4899.62 5461.94 4594.63 5461.94 1494.35 4857.41 1799.35"/><polygon class="cls-3" points="4857.41 1800.82 4857.41 4901.1 5461.94 4596.1 5461.94 1495.83 4857.41 1800.82"/><polygon class="cls-3" points="4857.41 1803.57 4857.41 2106.13 5461.94 1801.14 5461.94 1498.58 4857.41 1803.57"/><polygon class="cls-1" points="4857.41 2176.92 5461.94 1871.93 5461.94 1801.14 4857.41 2106.13 4857.41 2176.92"/><polygon class="cls-3" points="4857.41 2180.29 4857.41 2482.85 5461.94 2177.86 5461.94 1875.3 4857.41 2180.29"/><polygon class="cls-1" points="4857.41 2553.65 5461.94 2248.65 5461.94 2177.86 4857.41 2482.85 4857.41 2553.65"/><polygon class="cls-3" points="4857.41 2557.02 4857.41 2859.58 5461.94 2554.59 5461.94 2252.03 4857.41 2557.02"/><polygon class="cls-1" points="4857.41 2930.37 5461.94 2625.38 5461.94 2554.59 4857.41 2859.58 4857.41 2930.37"/><polygon class="cls-3" points="4857.41 2933.74 4857.41 3236.3 5461.94 2931.31 5461.94 2628.75 4857.41 2933.74"/><polygon class="cls-1" points="4857.41 3307.1 5461.94 3002.1 5461.94 2931.31 4857.41 3236.3 4857.41 3307.1"/><polygon class="cls-3" points="4857.41 3310.47 4857.41 3613.03 5461.94 3308.03 5461.94 3005.47 4857.41 3310.47"/><polygon class="cls-1" points="4857.41 3683.82 5461.94 3378.83 5461.94 3308.03 4857.41 3613.03 4857.41 3683.82"/><polygon class="cls-3" points="4857.41 3687.19 4857.41 3989.75 5461.94 3684.76 5461.94 3382.2 4857.41 3687.19"/><polygon class="cls-1" points="4857.41 4060.55 5461.94 3755.55 5461.94 3684.76 4857.41 3989.75 4857.41 4060.55"/><polygon class="cls-4" points="6066.47 1799.35 5461.94 1494.35 5461.94 4594.63 5462.47 4594.9 6066.47 4290.17 6066.47 1799.35"/><polygon class="cls-1" points="1434.2 4207.32 1836.48 4413.71 2771.35 3934.58 2771.35 3519.43 1434.2 4207.32"/><polygon class="cls-1" points="7567.09 4206.18 6220.03 3515.79 6220.03 3932.47 6752.07 4206.18 7567.09 4206.18"/><polygon class="cls-3" points="2924.91 2229.65 2924.91 4289.54 3430.34 4545.93 3430.34 1973.26 2924.91 2229.65"/><polygon class="cls-4" points="3935.76 2229.65 3935.76 4289.54 3430.34 4545.93 3430.34 1973.26 3935.76 2229.65"/><polygon class="cls-3" points="2924.91 2229.65 2924.91 2464.97 3430.34 2208.58 3430.34 1973.26 2924.91 2229.65"/><polygon class="cls-5" points="2924.91 2521.43 3430.34 2265.05 3430.34 2208.58 2924.91 2464.97 2924.91 2521.43"/><polygon class="cls-3" points="2924.91 2527.99 2924.91 2763.31 3430.34 2506.93 3430.34 2271.61 2924.91 2527.99"/><polygon class="cls-5" points="2924.91 2819.78 3430.34 2563.39 3430.34 2506.93 2924.91 2763.31 2924.91 2819.78"/><polygon class="cls-3" points="2924.91 2826.34 2924.91 3061.66 3430.34 2805.27 3430.34 2569.96 2924.91 2826.34"/><polygon class="cls-5" points="2924.91 3118.12 3430.34 2861.74 3430.34 2805.27 2924.91 3061.66 2924.91 3118.12"/><polygon class="cls-3" points="2924.91 3124.69 2924.91 3360 3430.34 3103.62 3430.34 2868.3 2924.91 3124.69"/><polygon class="cls-5" points="2924.91 3416.47 3430.34 3160.08 3430.34 3103.62 2924.91 3360 2924.91 3416.47"/><polygon class="cls-3" points="2924.91 3410.39 2924.91 3645.71 3430.34 3389.32 3430.34 3154.01 2924.91 3410.39"/><polygon class="cls-5" points="2924.91 3702.17 3430.34 3445.79 3430.34 3389.32 2924.91 3645.71 2924.91 3702.17"/><polygon class="cls-3" points="2924.91 3708.74 2924.91 3944.05 3430.34 3687.67 3430.34 3452.35 2924.91 3708.74"/><polygon class="cls-5" points="2924.91 4000.52 3430.34 3744.13 3430.34 3687.67 2924.91 3944.05 2924.91 4000.52"/><polygon class="cls-3" points="3618.63 4628.03 4500.65 5073.02 4500.65 521.99 3618.63 966.98 3618.63 4628.03"/><polygon class="cls-3" points="3618.63 966.98 3618.63 1411.97 4500.65 966.98 4500.65 521.99 3618.63 966.98"/><polygon class="cls-1" points="3618.63 1528.27 4500.65 1083.28 4500.65 966.98 3618.63 1411.97 3618.63 1528.27"/><polygon class="cls-3" points="3618.63 1529.96 3618.63 1974.95 4500.65 1529.96 4500.65 1084.97 3618.63 1529.96"/><polygon class="cls-1" points="3618.63 2091.25 4500.65 1646.26 4500.65 1529.96 3618.63 1974.95 3618.63 2091.25"/><polygon class="cls-3" points="3618.63 2092.94 3618.63 2537.93 4500.65 2092.94 4500.65 1647.95 3618.63 2092.94"/><polygon class="cls-1" points="3618.63 2654.23 4500.65 2209.24 4500.65 2092.94 3618.63 2537.93 3618.63 2654.23"/><polygon class="cls-3" points="3618.63 2655.92 3618.63 3100.91 4500.65 2655.92 4500.65 2210.93 3618.63 2655.92"/><polygon class="cls-1" points="3618.63 3217.21 4500.65 2772.22 4500.65 2655.92 3618.63 3100.91 3618.63 3217.21"/><polygon class="cls-3" points="3618.63 3218.9 3618.63 3663.89 4500.65 3218.9 4500.65 2773.91 3618.63 3218.9"/><polygon class="cls-1" points="3618.63 3780.19 4500.65 3335.2 4500.65 3218.9 3618.63 3663.89 3618.63 3780.19"/><polygon class="cls-3" points="3618.63 3781.88 3618.63 4226.87 4500.65 3781.88 4500.65 3336.89 3618.63 3781.88"/><polygon class="cls-1" points="3618.63 4343.17 4500.65 3898.18 4500.65 3781.88 3618.63 4226.87 3618.63 4343.17"/><path class="cls-4" d="M6527.25,2859.58c-169.67,0-307.22,140.36-307.22,313.51s137.55,313.52,307.22,313.52,307.22-140.37,307.22-313.52S6696.92,2859.58,6527.25,2859.58Zm0,579c-143.67,0-260.14-118.86-260.14-265.48s116.47-265.47,260.14-265.47,260.15,118.85,260.15,265.47S6670.92,3438.57,6527.25,3438.57Z"/><text class="cls-6" transform="translate(6305.21 3369.84) scale(0.98 1)">c</text></g></g></svg>